<?xml version="1.0" encoding="UTF-8" standalone="no"?>
<!-- Created with Inkscape (http://www.inkscape.org/) -->

<svg
   xmlns:dc="http://purl.org/dc/elements/1.1/"
   xmlns:cc="http://creativecommons.org/ns#"
   xmlns:rdf="http://www.w3.org/1999/02/22-rdf-syntax-ns#"
   xmlns:svg="http://www.w3.org/2000/svg"
   xmlns="http://www.w3.org/2000/svg"
   xmlns:sodipodi="http://sodipodi.sourceforge.net/DTD/sodipodi-0.dtd"
   xmlns:inkscape="http://www.inkscape.org/namespaces/inkscape"
   version="1.1"
   id="svg815"
   xml:space="preserve"
   width="482.98892"
   height="112.81826"
   viewBox="0 0 482.98891 112.81826"
   sodipodi:docname="Crosscountry-logo-by-arriva.svg"
   inkscape:version="0.92.2 (5c3e80d, 2017-08-06)"><metadata
     id="metadata821"><rdf:RDF><cc:Work
         rdf:about=""><dc:format>image/svg+xml</dc:format><dc:type
           rdf:resource="http://purl.org/dc/dcmitype/StillImage" /><dc:title></dc:title></cc:Work></rdf:RDF></metadata><defs
     id="defs819"><clipPath
       clipPathUnits="userSpaceOnUse"
       id="clipPath843"><path
         d="M 0,0 H 841.89 V 595.276 H 0 Z"
         id="path841"
         inkscape:connector-curvature="0" /></clipPath><clipPath
       clipPathUnits="userSpaceOnUse"
       id="clipPath863"><path
         d="M 0,0 H 841.89 V 595.276 H 0 Z"
         id="path861"
         inkscape:connector-curvature="0" /></clipPath><clipPath
       clipPathUnits="userSpaceOnUse"
       id="clipPath883"><path
         d="M 0,0 H 841.89 V 595.276 H 0 Z"
         id="path881"
         inkscape:connector-curvature="0" /></clipPath><clipPath
       clipPathUnits="userSpaceOnUse"
       id="clipPath905"><path
         d="M 0,595.276 H 841.89 V 0 H 0 Z"
         id="path903"
         inkscape:connector-curvature="0" /></clipPath><clipPath
       clipPathUnits="userSpaceOnUse"
       id="clipPath917"><path
         d="M 0,0 H 841.89 V 595.276 H 0 Z"
         id="path915"
         inkscape:connector-curvature="0" /></clipPath><clipPath
       clipPathUnits="userSpaceOnUse"
       id="clipPath947"><path
         d="M 0,0 H 841.89 V 595.276 H 0 Z"
         id="path945"
         inkscape:connector-curvature="0" /></clipPath><clipPath
       clipPathUnits="userSpaceOnUse"
       id="clipPath963"><path
         d="M 0,0 H 841.89 V 595.276 H 0 Z"
         id="path961"
         inkscape:connector-curvature="0" /></clipPath><clipPath
       clipPathUnits="userSpaceOnUse"
       id="clipPath1025"><path
         d="M 345.118,73.762 H 727.849 V 163.89 H 345.118 Z"
         id="path1023"
         inkscape:connector-curvature="0" /></clipPath><clipPath
       clipPathUnits="userSpaceOnUse"
       id="clipPath1061"><path
         d="M 345.118,73.762 H 727.849 V 163.89 H 345.118 Z"
         id="path1059"
         inkscape:connector-curvature="0" /></clipPath><clipPath
       clipPathUnits="userSpaceOnUse"
       id="clipPath1157"><path
         d="M 345.118,73.762 H 727.849 V 163.89 H 345.118 Z"
         id="path1155"
         inkscape:connector-curvature="0" /></clipPath><clipPath
       clipPathUnits="userSpaceOnUse"
       id="clipPath1225"><path
         d="m 369.01,383.926 h 287.501 v 91.139 H 369.01 Z"
         id="path1223"
         inkscape:connector-curvature="0" /></clipPath><clipPath
       clipPathUnits="userSpaceOnUse"
       id="clipPath1401"><path
         d="M 372.546,202.416 H 656.868 V 353.317 H 372.546 Z"
         id="path1399"
         inkscape:connector-curvature="0" /></clipPath><linearGradient
       x1="0"
       y1="0"
       x2="1"
       y2="0"
       gradientUnits="userSpaceOnUse"
       gradientTransform="matrix(0,9.4997627,-9.4997627,0,583.35901,327.97858)"
       spreadMethod="pad"
       id="linearGradient1495"><stop
         style="stop-opacity:1;stop-color:#ffffff"
         offset="0"
         id="stop1491" /><stop
         style="stop-opacity:1;stop-color:#454444"
         offset="1"
         id="stop1493" /></linearGradient><linearGradient
       x1="0"
       y1="0"
       x2="1"
       y2="0"
       gradientUnits="userSpaceOnUse"
       gradientTransform="matrix(0,9.4997627,-9.4997627,0,578.11537,317.72699)"
       spreadMethod="pad"
       id="linearGradient1519"><stop
         style="stop-opacity:1;stop-color:#ffffff"
         offset="0"
         id="stop1515" /><stop
         style="stop-opacity:1;stop-color:#454444"
         offset="1"
         id="stop1517" /></linearGradient><linearGradient
       x1="0"
       y1="0"
       x2="1"
       y2="0"
       gradientUnits="userSpaceOnUse"
       gradientTransform="matrix(0,9.4997627,-9.4997627,0,569.72296,307.90865)"
       spreadMethod="pad"
       id="linearGradient1543"><stop
         style="stop-opacity:1;stop-color:#ffffff"
         offset="0"
         id="stop1539" /><stop
         style="stop-opacity:1;stop-color:#454444"
         offset="1"
         id="stop1541" /></linearGradient><linearGradient
       x1="0"
       y1="0"
       x2="1"
       y2="0"
       gradientUnits="userSpaceOnUse"
       gradientTransform="matrix(0,9.4997627,-9.4997627,0,442.79421,327.97858)"
       spreadMethod="pad"
       id="linearGradient1567"><stop
         style="stop-opacity:1;stop-color:#ffffff"
         offset="0"
         id="stop1563" /><stop
         style="stop-opacity:1;stop-color:#454444"
         offset="1"
         id="stop1565" /></linearGradient><linearGradient
       x1="0"
       y1="0"
       x2="1"
       y2="0"
       gradientUnits="userSpaceOnUse"
       gradientTransform="matrix(0,9.4997627,-9.4997627,0,448.0368,317.72699)"
       spreadMethod="pad"
       id="linearGradient1591"><stop
         style="stop-opacity:1;stop-color:#ffffff"
         offset="0"
         id="stop1587" /><stop
         style="stop-opacity:1;stop-color:#454444"
         offset="1"
         id="stop1589" /></linearGradient><linearGradient
       x1="0"
       y1="0"
       x2="1"
       y2="0"
       gradientUnits="userSpaceOnUse"
       gradientTransform="matrix(0,9.4997627,-9.4997627,0,456.42417,307.90865)"
       spreadMethod="pad"
       id="linearGradient1615"><stop
         style="stop-opacity:1;stop-color:#ffffff"
         offset="0"
         id="stop1611" /><stop
         style="stop-opacity:1;stop-color:#454444"
         offset="1"
         id="stop1613" /></linearGradient><linearGradient
       x1="0"
       y1="0"
       x2="1"
       y2="0"
       gradientUnits="userSpaceOnUse"
       gradientTransform="matrix(0,9.4997627,-9.4997627,0,484.85404,307.90865)"
       spreadMethod="pad"
       id="linearGradient1639"><stop
         style="stop-opacity:1;stop-color:#ffffff"
         offset="0"
         id="stop1635" /><stop
         style="stop-opacity:1;stop-color:#ffffff"
         offset="1"
         id="stop1637" /></linearGradient><clipPath
       clipPathUnits="userSpaceOnUse"
       id="clipPath1649"><path
         d="M 372.546,202.416 H 656.868 V 353.317 H 372.546 Z"
         id="path1647"
         inkscape:connector-curvature="0" /></clipPath><clipPath
       clipPathUnits="userSpaceOnUse"
       id="clipPath1737"><path
         d="M 372.546,202.416 H 656.868 V 353.317 H 372.546 Z"
         id="path1735"
         inkscape:connector-curvature="0" /></clipPath></defs><sodipodi:namedview
     pagecolor="#ffffff"
     bordercolor="#666666"
     borderopacity="1"
     objecttolerance="10"
     gridtolerance="10"
     guidetolerance="10"
     inkscape:pageopacity="0"
     inkscape:pageshadow="2"
     inkscape:window-width="1680"
     inkscape:window-height="998"
     id="namedview817"
     showgrid="false"
     fit-margin-top="0"
     fit-margin-left="0"
     fit-margin-right="0"
     fit-margin-bottom="0"
     inkscape:zoom="1.0444735"
     inkscape:cx="318.5017"
     inkscape:cy="150.56208"
     inkscape:window-x="1358"
     inkscape:window-y="-8"
     inkscape:window-maximized="1"
     inkscape:current-layer="g823" /><g
     id="g823"
     inkscape:groupmode="layer"
     inkscape:label="Arriva brand guidelines - 24 October 2017"
     transform="matrix(1.3333333,0,0,-1.3333333,-429.43914,413.27664)"><g
       id="g1019"><g
         id="g1021"
         clip-path="url(#clipPath1025)"><g
           id="g1027"
           transform="translate(997.6584,85.2643)"><path
             d="m 0,0 c 1.639,0 2.343,1.016 2.343,2.186 v 6.83 c 0,1.602 1.093,2.693 2.654,2.693 0.819,0 1.209,-0.233 1.796,-0.78 l 1.405,1.679 C 7.26,13.506 6.325,13.895 4.997,13.895 2.07,13.895 0,11.866 0,8.9 Z m 28.654,6.948 c 0,2.733 2.069,4.761 4.646,4.761 2.575,0 4.683,-2.028 4.683,-4.761 0,-2.732 -2.108,-4.762 -4.683,-4.762 -2.577,0 -4.646,2.03 -4.646,4.762 m -2.341,0 C 26.313,2.927 29.434,0 33.3,0 35.095,0 36.735,0.703 37.983,1.796 38.139,0.78 38.919,0 40.325,0 v 6.948 c 0,4.021 -3.162,6.947 -7.025,6.947 -3.866,0 -6.987,-2.926 -6.987,-6.947 m -15.968,8.431 c 0.78,0 1.443,0.663 1.443,1.445 0,0.819 -0.663,1.483 -1.443,1.483 -0.82,0 -1.485,-0.664 -1.485,-1.483 0,-0.782 0.665,-1.445 1.485,-1.445 M 9.169,0 c 1.639,0 2.342,1.016 2.342,2.186 v 11.32 H 9.169 Z M -8.586,0 c 1.638,0 2.341,1.016 2.341,2.186 v 6.83 c 0,1.602 1.093,2.693 2.655,2.693 0.818,0 1.21,-0.233 1.794,-0.78 l 1.406,1.679 c -0.937,0.898 -1.873,1.287 -3.2,1.287 -2.928,0 -4.996,-2.029 -4.996,-4.995 z M 23.693,13.506 19.438,3.279 15.262,13.506 H 12.725 L 18.033,1.054 C 18.307,0.39 18.735,0 19.438,0 c 0.703,0 1.17,0.39 1.445,1.054 l 5.309,12.452 z M -22.913,6.948 c 0,2.733 2.069,4.761 4.645,4.761 2.577,0 4.684,-2.028 4.684,-4.761 0,-2.732 -2.107,-4.762 -4.684,-4.762 -2.576,0 -4.645,2.03 -4.645,4.762 m -2.341,0 c 0,-4.021 3.123,-6.948 6.986,-6.948 1.796,0 3.434,0.703 4.684,1.796 C -13.545,0.741 -12.646,0 -11.241,0 v 6.948 c 0,4.021 -3.161,6.947 -7.027,6.947 -3.863,0 -6.986,-2.926 -6.986,-6.947"
             style="fill:#565655;fill-opacity:1;fill-rule:nonzero;stroke:none"
             id="path1029"
             inkscape:connector-curvature="0" /></g><g
           id="g1031"
           transform="translate(1040.0076,85.419)"><path
             d="M 0,0 H 1.997"
             style="fill:none;stroke:#cb003d;stroke-width:0.66600001;stroke-linecap:butt;stroke-linejoin:miter;stroke-miterlimit:10;stroke-dasharray:none;stroke-opacity:1"
             id="path1033"
             inkscape:connector-curvature="0" /></g><g
           id="g1035"
           transform="translate(1046.0125,85.419)"><path
             d="M 0,0 H 254.52"
             style="fill:none;stroke:#cb003d;stroke-width:0.66600001;stroke-linecap:butt;stroke-linejoin:miter;stroke-miterlimit:10;stroke-dasharray:4.008, 4.008;stroke-dashoffset:0;stroke-opacity:1"
             id="path1037"
             inkscape:connector-curvature="0" /></g><g
           id="g1039"
           transform="translate(1302.5374,85.419)"><path
             d="M 0,0 H 1.997"
             style="fill:none;stroke:#cb003d;stroke-width:0.66600001;stroke-linecap:butt;stroke-linejoin:miter;stroke-miterlimit:10;stroke-dasharray:none;stroke-opacity:1"
             id="path1041"
             inkscape:connector-curvature="0" /></g><g
           id="g1043"
           transform="translate(1040.0076,99.2914)"><path
             d="M 0,0 H 1.997"
             style="fill:none;stroke:#cb003d;stroke-width:0.66600001;stroke-linecap:butt;stroke-linejoin:miter;stroke-miterlimit:10;stroke-dasharray:none;stroke-opacity:1"
             id="path1045"
             inkscape:connector-curvature="0" /></g><g
           id="g1047"
           transform="translate(1046.0125,99.2914)"><path
             d="M 0,0 H 254.52"
             style="fill:none;stroke:#cb003d;stroke-width:0.66600001;stroke-linecap:butt;stroke-linejoin:miter;stroke-miterlimit:10;stroke-dasharray:4.008, 4.008;stroke-dashoffset:0;stroke-opacity:1"
             id="path1049"
             inkscape:connector-curvature="0" /></g><g
           id="g1051"
           transform="translate(1302.5374,99.2914)"><path
             d="M 0,0 H 1.997"
             style="fill:none;stroke:#cb003d;stroke-width:0.66600001;stroke-linecap:butt;stroke-linejoin:miter;stroke-miterlimit:10;stroke-dasharray:none;stroke-opacity:1"
             id="path1053"
             inkscape:connector-curvature="0" /></g></g></g><g
       id="g1055"><g
         id="g1057"
         clip-path="url(#clipPath1061)"><text
           transform="matrix(1,0,0,-1,1113.3542,85.7297)"
           style="font-variant:normal;font-weight:normal;font-stretch:normal;font-size:27.23730087px;font-family:MarkPro;-inkscape-font-specification:MarkPro-Book;writing-mode:lr-tb;fill:#565655;fill-opacity:1;fill-rule:nonzero;stroke:none"
           id="text1065"><tspan
             x="0 16.178957 61.365639 74.276115 89.899429 115.09393 131.24565 147.42461 162.63936"
             y="0"
             sodipodi:role="line"
             id="tspan1063">a company</tspan></text>
<g
           id="g1067"
           transform="translate(1166.0685,84.546)"><path
             d="m 0,0 c 0,-0.521 -0.38,-0.937 -0.9,-0.937 h -26.122 c -0.52,0 -0.899,0.416 -0.899,0.937 v 16.335 c 0,0.521 0.379,0.936 0.899,0.936 H -0.9 c 0.52,0 0.9,-0.415 0.9,-0.936 z m -0.9,19.593 h -26.122 c -1.797,0 -3.287,-1.422 -3.287,-3.258 V 0 c 0,-1.836 1.49,-3.293 3.287,-3.293 H -0.9 c 1.799,0 3.288,1.457 3.288,3.293 v 16.335 c 0,1.836 -1.489,3.258 -3.288,3.258"
             style="fill:#565655;fill-opacity:1;fill-rule:nonzero;stroke:none"
             id="path1069"
             inkscape:connector-curvature="0" /></g><g
           id="g1071"
           transform="translate(1148.1465,92.454)"><path
             d="M 0,0 C 0,3.017 -0.313,5.375 -3.564,5.375 H -4.293 V -4.822 h 1.281 C -1.108,-4.822 0,-3.296 0,0 M -2.388,-7.25 H -7.89 V 7.733 h 5.502 c 3.874,0 6.016,-2.429 6.016,-7.423 0,-4.334 -1.449,-7.524 -6.016,-7.56"
             style="fill:#565655;fill-opacity:1;fill-rule:nonzero;stroke:none"
             id="path1073"
             inkscape:connector-curvature="0" /></g><g
           id="g1075"
           transform="translate(1158.3867,87.6336)"><path
             d="M 0,0 H -1.474 V 3.85 H 0.097 C 1.969,3.85 2.424,2.758 2.424,1.925 2.424,0 0.571,0 0,0 m -1.474,10.236 h 1.135 c 1.61,0 2.252,-0.562 2.252,-1.801 0,-0.986 -0.708,-1.814 -1.96,-1.814 H -1.474 Z M 2.89,5.409 C 3.95,5.69 5.51,6.9 5.51,8.898 c 0,0.31 -0.067,3.649 -4.277,3.649 H -5.036 V -2.428 h 5.294 c 1.403,0 5.775,0 5.775,4.212 0,1.05 -0.429,3.032 -3.143,3.625"
             style="fill:#565655;fill-opacity:1;fill-rule:nonzero;stroke:none"
             id="path1077"
             inkscape:connector-curvature="0" /></g><text
           transform="matrix(1,0,0,-1,1078.854,89.5589)"
           style="font-variant:normal;font-weight:normal;font-stretch:normal;font-size:11.55070019px;font-family:MarkPro;-inkscape-font-specification:MarkPro-Book;writing-mode:lr-tb;fill:#565655;fill-opacity:1;fill-rule:nonzero;stroke:none"
           id="text1081"><tspan
             x="0"
             y="0"
             id="tspan1079">=</tspan></text>
</g></g><g
       id="g1163"
       transform="translate(549.02837,244.89059)"
       style="fill:#d9024c;fill-opacity:1"><path
         d="m 0,0 5.584,-13.093 c 0.285,-0.69 0.707,-1.011 1.329,-1.011 0.643,0 1.092,0.33 1.371,1.01 L 13.865,0 H 11.512 L 6.912,-10.945 2.335,0 Z"
         style="fill:#d9024c;fill-opacity:1;fill-rule:nonzero;stroke:none"
         id="path1165"
         inkscape:connector-curvature="0" /></g><g
       id="g1167"
       transform="translate(540.88647,245.21189)"
       style="fill:#d9024c;fill-opacity:1"><path
         d="m 0,0 c -3.023,0 -5.136,-2.111 -5.136,-5.136 v -9.285 c 1.338,0.064 2.131,0.855 2.131,2.141 v 7.268 c 0,1.794 1.236,3.047 3.005,3.047 0.865,0 1.314,-0.233 1.893,-0.751 l 1.265,1.511 C 2.222,-0.351 1.295,0 0,0"
         style="fill:#d9024c;fill-opacity:1;fill-rule:nonzero;stroke:none"
         id="path1169"
         inkscape:connector-curvature="0" /></g><g
       id="g1171"
       transform="translate(532.14706,245.21189)"
       style="fill:#d9024c;fill-opacity:1"><path
         d="m 0,0 c -3.024,0 -5.136,-2.111 -5.136,-5.136 v -9.285 c 1.338,0.064 2.131,0.855 2.131,2.141 v 7.268 c 0,1.794 1.236,3.047 3.005,3.047 0.865,0 1.314,-0.233 1.893,-0.751 l 1.265,1.511 C 2.222,-0.351 1.295,0 0,0"
         style="fill:#d9024c;fill-opacity:1;fill-rule:nonzero;stroke:none"
         id="path1173"
         inkscape:connector-curvature="0" /></g><g
       id="g1175"
       transform="translate(570.25567,232.75119)"
       style="fill:#d9024c;fill-opacity:1"><path
         d="m 0,0 c -2.873,0 -5.124,2.306 -5.124,5.248 0,2.943 2.251,5.247 5.124,5.247 2.897,0 5.165,-2.304 5.165,-5.247 C 5.165,2.306 2.897,0 0,0 m 0,12.46 c -4.135,0 -7.254,-3.1 -7.254,-7.212 0,-4.111 3.119,-7.213 7.254,-7.213 1.763,0 3.49,0.663 4.866,1.866 L 5.113,0.117 5.162,-0.208 C 5.325,-1.255 6.116,-1.901 7.295,-1.961 V 5.248 C 7.295,9.292 4.091,12.46 0,12.46"
         style="fill:#d9024c;fill-opacity:1;fill-rule:nonzero;stroke:none"
         id="path1177"
         inkscape:connector-curvature="0" /></g><g
       id="g1179"
       transform="translate(516.91287,232.75119)"
       style="fill:#d9024c;fill-opacity:1"><path
         d="m 0,0 c -2.873,0 -5.122,2.306 -5.122,5.248 0,2.943 2.249,5.247 5.122,5.247 2.897,0 5.165,-2.304 5.165,-5.247 C 5.165,2.306 2.897,0 0,0 m 0,12.46 c -4.135,0 -7.254,-3.1 -7.254,-7.212 0,-4.111 3.119,-7.213 7.254,-7.213 1.763,0 3.49,0.663 4.866,1.866 L 5.152,0.15 5.165,-0.228 C 5.202,-1.235 6.032,-1.904 7.296,-1.961 V 5.248 C 7.296,9.292 4.091,12.46 0,12.46"
         style="fill:#d9024c;fill-opacity:1;fill-rule:nonzero;stroke:none"
         id="path1181"
         inkscape:connector-curvature="0" /></g><g
       id="g1183"
       transform="translate(545.43767,244.89059)"
       style="fill:#d9024c;fill-opacity:1"><path
         d="m 0,0 v -14.1 c 1.338,0.065 2.131,0.854 2.131,2.142 V 0 Z"
         style="fill:#d9024c;fill-opacity:1;fill-rule:nonzero;stroke:none"
         id="path1185"
         inkscape:connector-curvature="0" /></g><g
       id="g1187"
       transform="translate(546.50767,249.55519)"
       style="fill:#d9024c;fill-opacity:1"><path
         d="m 0,0 c -0.771,0 -1.398,-0.627 -1.398,-1.398 0,-0.736 0.641,-1.356 1.398,-1.356 0.735,0 1.357,0.62 1.357,1.356 C 1.357,-0.64 0.735,0 0,0"
         style="fill:#d9024c;fill-opacity:1;fill-rule:nonzero;stroke:none"
         id="path1189"
         inkscape:connector-curvature="0" /></g><g
       id="g1191"
       transform="translate(477.35877,238.02929)"
       style="fill:#d9024c;fill-opacity:1"><path
         d="m 0,0 c 0,-2.905 2.007,-5.1 4.868,-5.1 2.933,0 4.884,2.269 4.884,5.1 0,2.817 -1.979,5.085 -4.884,5.085 C 2.007,5.085 0,2.889 0,0 m 11.962,0 c 0,-4.117 -2.991,-7.123 -6.833,-7.123 -2.254,0 -3.902,0.91 -4.985,2.297 V -6.849 H -2.023 V 13.956 H 0.144 V 4.811 c 1.083,1.387 2.731,2.298 4.985,2.298 3.842,0 6.833,-3.005 6.833,-7.109"
         style="fill:#d9024c;fill-opacity:1;fill-rule:nonzero;stroke:none"
         id="path1193"
         inkscape:connector-curvature="0" /></g><g
       id="g1195"
       transform="translate(493.38016,225.34379)"
       style="fill:#d9024c;fill-opacity:1"><path
         d="M 0,0 H -2.384 L 2.717,8.799 -3.569,19.52 h 2.413 l 5.1,-8.583 4.826,8.583 h 2.37 z"
         style="fill:#d9024c;fill-opacity:1;fill-rule:nonzero;stroke:none"
         id="path1197"
         inkscape:connector-curvature="0" /></g><g
       id="g1199"
       transform="translate(413.89536,265.61869)"
       style="fill:#d9024c;fill-opacity:1"><path
         d="m 0,0 c -1.415,0 -2.516,0.218 -3.305,0.652 -0.79,0.436 -1.368,0.924 -1.736,1.469 -0.366,0.543 -0.591,1.082 -0.671,1.613 -0.083,0.531 -0.121,0.903 -0.121,1.122 0,0.219 0.066,0.394 0.201,0.53 0.137,0.135 0.311,0.205 0.529,0.205 h 2.039 c 0.517,0 0.817,-0.232 0.897,-0.695 0.029,-0.189 0.081,-0.388 0.164,-0.591 0.082,-0.203 0.205,-0.397 0.367,-0.571 0.162,-0.177 0.393,-0.327 0.693,-0.45 0.297,-0.124 0.694,-0.185 1.181,-0.185 h 7.665 c 0.79,0 1.378,0.214 1.774,0.635 0.392,0.419 0.591,1.189 0.591,2.307 0,1.085 -0.224,1.814 -0.673,2.181 C 9.147,8.589 8.53,8.787 7.744,8.814 l -7.862,0.164 c -1.738,0.026 -3.09,0.46 -4.053,1.306 -0.964,0.842 -1.447,2.311 -1.447,4.407 0,2.038 0.493,3.501 1.477,4.387 0.983,0.884 2.388,1.324 4.212,1.324 h 7.59 c 1.413,0 2.516,-0.218 3.306,-0.652 0.788,-0.437 1.367,-0.925 1.733,-1.47 0.367,-0.544 0.591,-1.087 0.675,-1.633 0.08,-0.542 0.121,-0.911 0.121,-1.1 0,-0.217 -0.069,-0.395 -0.205,-0.531 -0.136,-0.136 -0.313,-0.205 -0.531,-0.205 h -2.038 c -0.517,0 -0.818,0.233 -0.899,0.695 -0.055,0.192 -0.114,0.387 -0.185,0.591 -0.067,0.205 -0.182,0.395 -0.347,0.571 -0.162,0.177 -0.392,0.326 -0.693,0.449 -0.299,0.124 -0.692,0.185 -1.182,0.185 H 0.968 c -1.088,0 -1.857,-0.171 -2.306,-0.51 -0.448,-0.342 -0.672,-1.069 -0.672,-2.185 0,-1.087 0.205,-1.774 0.611,-2.059 0.407,-0.286 1.004,-0.442 1.792,-0.471 l 7.983,-0.163 c 0.868,-0.025 1.643,-0.137 2.322,-0.324 0.676,-0.192 1.254,-0.513 1.73,-0.963 0.477,-0.447 0.836,-1.046 1.08,-1.793 C 13.751,8.087 13.877,7.17 13.877,6.08 13.877,4.042 13.392,2.516 12.426,1.51 11.46,0.502 10.105,0 8.365,0 Z m -22.323,0 c -1.418,0 -2.52,0.218 -3.311,0.652 -0.791,0.436 -1.37,0.924 -1.737,1.469 -0.367,0.543 -0.592,1.082 -0.675,1.613 -0.081,0.531 -0.121,0.903 -0.121,1.122 0,0.219 0.066,0.394 0.204,0.53 0.135,0.135 0.312,0.205 0.531,0.205 h 2.042 c 0.518,0 0.817,-0.232 0.9,-0.695 0.026,-0.189 0.08,-0.388 0.161,-0.591 0.082,-0.203 0.205,-0.397 0.367,-0.571 0.167,-0.177 0.397,-0.327 0.696,-0.45 0.3,-0.124 0.694,-0.185 1.187,-0.185 h 7.679 c 0.791,0 1.386,0.214 1.779,0.635 0.394,0.419 0.592,1.189 0.592,2.307 0,1.085 -0.225,1.814 -0.673,2.181 -0.45,0.367 -1.069,0.565 -1.857,0.592 l -7.88,0.164 c -1.742,0.026 -3.098,0.46 -4.061,1.306 -0.967,0.842 -1.45,2.311 -1.45,4.407 0,2.038 0.491,3.501 1.473,4.387 0.987,0.884 2.39,1.324 4.214,1.324 h 7.592 c 1.413,0 2.516,-0.218 3.302,-0.652 0.791,-0.437 1.368,-0.925 1.735,-1.47 0.369,-0.544 0.592,-1.087 0.675,-1.633 0.08,-0.542 0.122,-0.911 0.122,-1.1 0,-0.217 -0.069,-0.395 -0.205,-0.531 -0.135,-0.136 -0.312,-0.205 -0.531,-0.205 h -2.039 c -0.517,0 -0.816,0.233 -0.897,0.695 -0.055,0.192 -0.118,0.387 -0.184,0.591 -0.069,0.205 -0.185,0.395 -0.346,0.571 -0.165,0.177 -0.394,0.326 -0.694,0.449 -0.301,0.124 -0.696,0.185 -1.185,0.185 h -6.447 c -1.087,0 -1.855,-0.171 -2.305,-0.51 -0.449,-0.342 -0.674,-1.069 -0.674,-2.185 0,-1.087 0.205,-1.774 0.611,-2.059 0.41,-0.286 1.009,-0.442 1.8,-0.471 l 8.001,-0.163 c 0.87,-0.025 1.646,-0.137 2.328,-0.324 0.679,-0.192 1.254,-0.513 1.732,-0.963 C -9.396,10.18 -9.035,9.581 -8.79,8.834 -8.546,8.087 -8.423,7.17 -8.423,6.08 -8.423,4.042 -8.906,2.516 -9.874,1.51 -10.841,0.502 -12.195,0 -13.94,0 Z m -14.886,3.183 c 0.707,0 1.286,0.224 1.736,0.672 0.449,0.447 0.674,1.027 0.674,1.736 v 9.22 c 0,0.708 -0.225,1.287 -0.674,1.736 -0.45,0.447 -1.029,0.674 -1.736,0.674 h -7.349 c -0.709,0 -1.286,-0.227 -1.736,-0.674 -0.449,-0.449 -0.672,-1.028 -0.672,-1.736 v -9.22 c 0,-0.709 0.223,-1.289 0.672,-1.736 0.45,-0.448 1.027,-0.672 1.736,-0.672 z M -44.928,0 c -1.746,0 -3.133,0.516 -4.167,1.549 -1.036,1.036 -1.552,2.423 -1.552,4.165 v 8.977 c 0,1.739 0.516,3.127 1.552,4.16 1.034,1.035 2.421,1.551 4.167,1.551 h 8.089 c 1.743,0 3.133,-0.516 4.166,-1.551 1.035,-1.033 1.555,-2.421 1.555,-4.16 V 5.714 c 0,-1.742 -0.52,-3.129 -1.555,-4.165 C -33.706,0.516 -35.096,0 -36.839,0 Z m -18.724,17.221 c -0.707,0 -1.286,-0.227 -1.733,-0.674 -0.449,-0.449 -0.674,-1.028 -0.674,-1.736 V 0.734 c 0,-0.218 -0.068,-0.396 -0.203,-0.53 C -66.401,0.068 -66.575,0 -66.795,0 h -2.207 c -0.218,0 -0.395,0.068 -0.531,0.204 -0.136,0.134 -0.205,0.312 -0.205,0.53 v 13.957 c 0,1.739 0.518,3.127 1.553,4.16 1.036,1.035 2.424,1.551 4.166,1.551 h 5.141 c 1.416,0 2.517,-0.218 3.307,-0.652 0.788,-0.437 1.367,-0.925 1.733,-1.47 0.367,-0.544 0.591,-1.087 0.673,-1.633 0.082,-0.542 0.123,-0.911 0.123,-1.1 0,-0.217 -0.067,-0.395 -0.205,-0.531 -0.135,-0.136 -0.312,-0.205 -0.529,-0.205 h -2.082 c -0.516,0 -0.816,0.233 -0.897,0.695 -0.053,0.192 -0.116,0.387 -0.184,0.591 -0.069,0.205 -0.183,0.389 -0.347,0.55 -0.162,0.165 -0.394,0.299 -0.692,0.408 -0.302,0.11 -0.695,0.166 -1.184,0.166 z M -86.099,0 c -1.738,0 -3.128,0.516 -4.165,1.549 -1.036,1.036 -1.552,2.423 -1.552,4.165 v 8.977 c 0,1.739 0.516,3.127 1.552,4.16 1.037,1.035 2.427,1.551 4.165,1.551 h 7.512 c 1.413,0 2.515,-0.218 3.303,-0.652 0.791,-0.437 1.367,-0.925 1.733,-1.47 0.369,-0.544 0.594,-1.087 0.676,-1.633 0.08,-0.542 0.12,-0.911 0.12,-1.1 0,-0.217 -0.068,-0.395 -0.202,-0.531 -0.137,-0.136 -0.314,-0.205 -0.53,-0.205 h -2.082 c -0.518,0 -0.816,0.233 -0.897,0.695 -0.056,0.192 -0.117,0.387 -0.185,0.591 -0.067,0.205 -0.183,0.389 -0.346,0.55 -0.164,0.165 -0.396,0.299 -0.694,0.408 -0.301,0.11 -0.695,0.166 -1.183,0.166 h -6.855 c -0.708,0 -1.284,-0.227 -1.736,-0.674 -0.447,-0.449 -0.672,-1.028 -0.672,-1.736 v -9.22 c 0,-0.709 0.225,-1.289 0.672,-1.736 0.452,-0.448 1.028,-0.672 1.736,-0.672 h 6.855 c 0.488,0 0.882,0.054 1.183,0.162 0.298,0.109 0.53,0.245 0.694,0.408 0.163,0.162 0.279,0.349 0.346,0.552 0.068,0.203 0.129,0.402 0.185,0.591 0.081,0.463 0.379,0.695 0.897,0.695 h 2.082 c 0.216,0 0.393,-0.07 0.53,-0.205 0.134,-0.136 0.202,-0.311 0.202,-0.53 0,-0.219 -0.04,-0.591 -0.12,-1.122 -0.082,-0.531 -0.307,-1.07 -0.676,-1.613 C -73.917,1.576 -74.493,1.088 -75.284,0.652 -76.072,0.218 -77.174,0 -78.587,0 Z"
         style="fill:#d9024c;fill-opacity:1;fill-rule:nonzero;stroke:none"
         id="path1201"
         inkscape:connector-curvature="0" /></g><g
       id="g1203"
       transform="translate(577.28737,271.33169)"
       style="fill:#928b82;fill-opacity:1"><path
         d="m 0,0 c 0,-1.741 -0.514,-3.127 -1.55,-4.163 -1.033,-1.034 -2.418,-1.551 -4.16,-1.551 h -2.123 v -5.629 c 0,-0.22 -0.066,-0.394 -0.202,-0.531 -0.137,-0.138 -0.314,-0.205 -0.531,-0.205 h -2.209 c -0.218,0 -0.395,0.067 -0.532,0.205 -0.135,0.137 -0.203,0.311 -0.203,0.531 v 5.629 h -2.12 c -1.743,0 -3.13,0.517 -4.163,1.551 -1.034,1.036 -1.55,2.422 -1.55,4.163 v 13.75 c 0,0.218 0.068,0.394 0.204,0.531 0.137,0.137 0.312,0.207 0.531,0.207 h 2.207 c 0.217,0 0.395,-0.07 0.534,-0.207 0.135,-0.137 0.203,-0.313 0.203,-0.531 V -0.122 c 0,-0.709 0.226,-1.288 0.674,-1.736 0.447,-0.448 1.024,-0.673 1.732,-0.673 h 7.174 c 0.707,0 1.282,0.225 1.734,0.673 0.448,0.448 0.673,1.027 0.673,1.736 V 13.75 c 0,0.218 0.067,0.394 0.203,0.531 0.137,0.137 0.314,0.207 0.531,0.207 h 2.209 c 0.218,0 0.395,-0.07 0.532,-0.207 C -0.068,14.144 0,13.968 0,13.75 Z m -32.386,11.507 c -0.705,0 -1.282,-0.225 -1.732,-0.674 -0.448,-0.448 -0.673,-1.027 -0.673,-1.734 V -4.98 c 0,-0.217 -0.069,-0.394 -0.204,-0.529 -0.137,-0.137 -0.315,-0.205 -0.532,-0.205 h -2.209 c -0.217,0 -0.394,0.068 -0.532,0.205 -0.135,0.135 -0.201,0.312 -0.201,0.529 V 8.978 c 0,1.74 0.516,3.128 1.553,4.161 1.035,1.034 2.422,1.551 4.167,1.551 h 5.141 c 1.412,0 2.516,-0.218 3.305,-0.654 0.787,-0.436 1.366,-0.924 1.732,-1.469 0.368,-0.545 0.593,-1.088 0.677,-1.632 0.078,-0.542 0.119,-0.911 0.119,-1.101 0,-0.217 -0.068,-0.394 -0.203,-0.532 -0.136,-0.135 -0.313,-0.203 -0.532,-0.203 h -2.08 c -0.517,0 -0.816,0.233 -0.899,0.693 -0.054,0.192 -0.114,0.389 -0.181,0.593 -0.068,0.203 -0.186,0.387 -0.347,0.55 -0.165,0.165 -0.397,0.299 -0.696,0.408 -0.297,0.108 -0.693,0.164 -1.181,0.164 z M -49.219,-5.714 c -1.744,0 -3.13,0.517 -4.167,1.551 -1.035,1.036 -1.552,2.422 -1.552,4.163 v 18.606 c 0,0.219 0.068,0.394 0.205,0.53 0.135,0.139 0.312,0.205 0.53,0.205 h 2.208 c 0.218,0 0.393,-0.066 0.532,-0.205 0.137,-0.136 0.205,-0.311 0.205,-0.53 v -4.118 h 5.426 c 0.217,0 0.394,-0.07 0.531,-0.207 0.137,-0.137 0.204,-0.313 0.204,-0.531 v -1.712 c 0,-0.218 -0.067,-0.394 -0.204,-0.531 -0.137,-0.136 -0.314,-0.205 -0.531,-0.205 h -5.426 V -0.122 c 0,-0.709 0.225,-1.288 0.672,-1.736 0.45,-0.448 1.026,-0.673 1.734,-0.673 h 7.1 c 0.22,0 0.394,-0.068 0.531,-0.205 0.136,-0.134 0.205,-0.314 0.205,-0.531 V -4.98 c 0,-0.217 -0.069,-0.394 -0.205,-0.529 -0.137,-0.137 -0.311,-0.205 -0.531,-0.205 z m -9.509,0.734 c 0,-0.217 -0.066,-0.394 -0.203,-0.529 -0.139,-0.137 -0.313,-0.205 -0.532,-0.205 h -2.207 c -0.221,0 -0.396,0.068 -0.532,0.205 -0.136,0.135 -0.204,0.312 -0.204,0.529 V 9.099 c 0,0.707 -0.224,1.286 -0.672,1.734 -0.45,0.449 -1.028,0.674 -1.735,0.674 h -7.138 c -0.705,0 -1.287,-0.225 -1.734,-0.674 -0.446,-0.448 -0.673,-1.027 -0.673,-1.734 V -4.98 c 0,-0.217 -0.067,-0.394 -0.202,-0.529 -0.137,-0.137 -0.315,-0.205 -0.532,-0.205 h -2.207 c -0.222,0 -0.396,0.068 -0.534,0.205 -0.133,0.135 -0.205,0.312 -0.205,0.529 V 8.978 c 0,1.74 0.517,3.128 1.553,4.161 1.035,1.034 2.423,1.551 4.163,1.551 h 7.881 c 1.742,0 3.131,-0.517 4.161,-1.551 1.036,-1.033 1.552,-2.421 1.552,-4.161 z M -81.862,0 c 0,-1.741 -0.516,-3.127 -1.552,-4.163 -1.034,-1.034 -2.423,-1.551 -4.164,-1.551 h -7.879 c -1.741,0 -3.129,0.517 -4.163,1.551 -1.033,1.036 -1.552,2.422 -1.552,4.163 v 13.75 c 0,0.218 0.068,0.394 0.205,0.531 0.137,0.137 0.314,0.207 0.531,0.207 h 2.208 c 0.218,0 0.396,-0.07 0.533,-0.207 0.136,-0.137 0.204,-0.313 0.204,-0.531 V -0.122 c 0,-0.709 0.225,-1.288 0.672,-1.736 0.449,-0.448 1.026,-0.673 1.734,-0.673 h 7.137 c 0.708,0 1.283,0.225 1.735,0.673 0.447,0.448 0.672,1.027 0.672,1.736 V 13.75 c 0,0.218 0.067,0.394 0.204,0.531 0.137,0.137 0.314,0.207 0.532,0.207 h 2.207 c 0.219,0 0.394,-0.07 0.53,-0.207 0.136,-0.137 0.206,-0.313 0.206,-0.531 z m -29.043,-2.531 c 0.71,0 1.289,0.225 1.736,0.673 0.449,0.448 0.675,1.027 0.675,1.736 v 9.221 c 0,0.707 -0.226,1.286 -0.675,1.734 -0.447,0.449 -1.026,0.674 -1.736,0.674 h -7.349 c -0.706,0 -1.285,-0.225 -1.736,-0.674 -0.447,-0.448 -0.674,-1.027 -0.674,-1.734 v -9.221 c 0,-0.709 0.227,-1.288 0.674,-1.736 0.451,-0.448 1.03,-0.673 1.736,-0.673 z m -7.719,-3.183 c -1.742,0 -3.131,0.517 -4.166,1.551 -1.034,1.036 -1.552,2.422 -1.552,4.163 v 8.978 c 0,1.74 0.518,3.128 1.552,4.161 1.035,1.034 2.424,1.551 4.166,1.551 h 8.089 c 1.744,0 3.134,-0.517 4.167,-1.551 1.034,-1.033 1.554,-2.421 1.554,-4.161 V 0 c 0,-1.741 -0.52,-3.127 -1.554,-4.163 -1.033,-1.034 -2.423,-1.551 -4.167,-1.551 z m -22.041,0 c -1.741,0 -3.13,0.517 -4.166,1.551 -1.037,1.036 -1.552,2.422 -1.552,4.163 v 8.978 c 0,1.74 0.515,3.128 1.552,4.161 1.036,1.034 2.425,1.551 4.166,1.551 h 7.509 c 1.414,0 2.517,-0.218 3.306,-0.654 0.789,-0.436 1.365,-0.924 1.734,-1.469 0.368,-0.545 0.593,-1.088 0.674,-1.632 0.08,-0.542 0.121,-0.911 0.121,-1.101 0,-0.217 -0.069,-0.394 -0.202,-0.532 -0.139,-0.135 -0.316,-0.203 -0.533,-0.203 h -2.082 c -0.515,0 -0.816,0.233 -0.896,0.693 -0.055,0.192 -0.118,0.389 -0.182,0.593 -0.07,0.203 -0.187,0.387 -0.349,0.55 -0.162,0.165 -0.393,0.299 -0.694,0.408 -0.298,0.108 -0.693,0.164 -1.183,0.164 h -6.854 c -0.707,0 -1.286,-0.225 -1.734,-0.674 -0.45,-0.448 -0.673,-1.027 -0.673,-1.734 v -9.221 c 0,-0.709 0.223,-1.288 0.673,-1.736 0.448,-0.448 1.027,-0.673 1.734,-0.673 h 6.854 c 0.49,0 0.885,0.055 1.183,0.163 0.301,0.11 0.532,0.246 0.694,0.408 0.162,0.163 0.279,0.348 0.349,0.552 0.064,0.202 0.127,0.402 0.182,0.592 0.08,0.462 0.381,0.694 0.896,0.694 h 2.082 c 0.217,0 0.394,-0.07 0.533,-0.205 0.133,-0.136 0.202,-0.312 0.202,-0.529 0,-0.22 -0.041,-0.591 -0.121,-1.122 -0.081,-0.533 -0.306,-1.072 -0.674,-1.614 -0.369,-0.544 -0.945,-1.033 -1.734,-1.468 -0.789,-0.434 -1.892,-0.654 -3.306,-0.654 z"
         style="fill:#928b82;fill-opacity:1;fill-rule:nonzero;stroke:none"
         id="path1205"
         inkscape:connector-curvature="0" /></g><g
       id="g1207"
       transform="translate(641.02116,292.30539)"
       style="fill:#d9024c;fill-opacity:1"><path
         d="m 0,0 c 0.543,-0.162 0.988,-0.395 1.327,-0.694 0.342,-0.299 0.39,-0.789 0.144,-1.468 L -9.263,-30.563 c -0.326,-0.87 -0.789,-1.558 -1.387,-2.061 -0.599,-0.505 -1.278,-0.904 -2.038,-1.203 l -24.975,-9.223 c -0.924,-0.354 -1.672,-0.518 -2.243,-0.489 -0.572,0.028 -0.998,0.163 -1.287,0.409 -0.285,0.242 -0.427,0.57 -0.427,0.977 0,0.41 0.122,0.831 0.367,1.265 l 20.606,35.706 -45.004,12.69 c -0.956,0.273 -1.431,0.586 -1.431,0.94 0,0.406 0.515,0.664 1.55,0.772 l 20.77,2.449 c 0.546,0.055 1.033,0.09 1.47,0.103 0.434,0.013 0.85,0.007 1.243,-0.021 0.395,-0.028 0.788,-0.082 1.185,-0.161 0.393,-0.084 0.821,-0.179 1.286,-0.288 z"
         style="fill:#d9024c;fill-opacity:1;fill-rule:nonzero;stroke:none"
         id="path1209"
         inkscape:connector-curvature="0" /></g><g
       id="g1211"
       transform="translate(646.53187,309.88549)"
       style="fill:#928b82;fill-opacity:1"><path
         d="m 0,0 c 0.19,0.023 0.379,0.041 0.57,0.052 0.191,0.013 0.408,0.02 0.652,0.02 0.379,0 0.694,-0.067 0.94,-0.201 0.245,-0.133 0.367,-0.32 0.367,-0.566 0,-0.164 -0.057,-0.373 -0.164,-0.634 C 2.256,-1.585 2.119,-1.933 1.957,-2.368 L -3.51,-16.527 c -0.381,0.22 -0.761,0.389 -1.143,0.511 -0.382,0.123 -0.764,0.236 -1.143,0.346 l -13.998,3.875 5.224,9.102 c 0.246,0.434 0.572,0.732 0.981,0.899 0.406,0.159 0.775,0.268 1.103,0.324 z"
         style="fill:#928b82;fill-opacity:1;fill-rule:nonzero;stroke:none"
         id="path1213"
         inkscape:connector-curvature="0" /></g><g
       id="g1215"
       transform="translate(671.30047,273.61589)"
       style="fill:#928b82;fill-opacity:1"><path
         d="M 0,0 C -0.6,-0.217 -1.262,-0.334 -1.981,-0.346 -2.704,-0.358 -3.538,-0.245 -4.49,0 l -24.522,6.856 3.14,8.896 c 0.081,0.217 0.13,0.447 0.141,0.694 0.016,0.242 -0.005,0.434 -0.06,0.57 L 11.751,6.327 C 12.54,6.108 12.959,5.808 13.015,5.429 13.068,5.045 12.745,4.719 12.037,4.448 Z"
         style="fill:#928b82;fill-opacity:1;fill-rule:nonzero;stroke:none"
         id="path1217"
         inkscape:connector-curvature="0" /></g></g></svg>